<?xml version="1.0" standalone="no"?>
<!DOCTYPE svg PUBLIC "-//W3C//DTD SVG 20010904//EN"
 "http://www.w3.org/TR/2001/REC-SVG-20010904/DTD/svg10.dtd">
<svg version="1.0" xmlns="http://www.w3.org/2000/svg"
 width="107.000000pt" height="107.000000pt" viewBox="0 0 107.000000 107.000000"
 preserveAspectRatio="xMidYMid meet">
<metadata>
Created by potrace 1.14, written by Peter Selinger 2001-2017
</metadata>
<g transform="translate(0.000000,107.000000) scale(0.100000,-0.100000)"
fill="#000000" stroke="none">
<path d="M108 930 c-61 -48 -57 -133 8 -172 32 -19 34 -23 34 -74 0 -38 -4
-54 -13 -54 -18 0 -63 -49 -72 -78 -10 -33 12 -89 45 -112 16 -12 44 -20 67
-20 35 0 46 -8 132 -94 55 -55 91 -99 87 -105 -4 -6 -2 -27 4 -47 14 -42 60
-74 107 -74 35 0 88 38 98 70 5 17 16 20 64 20 56 0 59 -1 71 -30 24 -58 97
-76 155 -40 34 21 45 44 45 98 0 39 -41 87 -85 98 -37 9 -91 -18 -113 -56 -16
-28 -21 -30 -73 -30 -50 0 -57 3 -67 25 -27 59 -117 81 -164 39 -18 -17 -22
-15 -103 66 -83 83 -84 84 -69 111 29 56 8 126 -46 154 -27 14 -30 20 -30 66
0 47 2 51 30 61 34 11 60 53 60 93 0 34 -25 82 -49 95 -32 17 -96 12 -123 -10z
m108 -45 c15 -15 23 -32 20 -41 -3 -9 -6 -20 -6 -25 0 -4 -12 -15 -27 -23 -64
-32 -123 44 -73 94 27 27 56 25 86 -5z m0 -320 c26 -26 26 -55 0 -82 -25 -25
-71 -19 -92 12 -28 43 -1 92 54 94 7 1 24 -10 38 -24z m319 -305 c23 -9 26
-15 23 -52 -2 -34 -8 -45 -30 -57 -25 -14 -29 -14 -55 5 -35 26 -41 66 -14 93
23 23 38 26 76 11z m331 2 c23 -15 34 -50 24 -76 -9 -24 -37 -46 -60 -46 -19
0 -60 48 -60 70 0 41 62 75 96 52z"/>
<path d="M437 930 c-40 -31 -52 -81 -31 -125 25 -54 100 -83 144 -55 12 7 35
-10 101 -76 84 -84 87 -88 82 -125 -13 -96 71 -158 156 -115 51 27 68 112 31
159 -27 34 -78 51 -115 37 -25 -9 -32 -7 -71 30 -24 22 -63 61 -86 86 -40 43
-43 50 -40 93 3 41 0 52 -26 79 -25 27 -37 32 -75 32 -29 0 -53 -7 -70 -20z
m101 -36 c26 -18 30 -75 7 -94 -37 -30 -105 0 -105 46 0 26 35 64 60 64 8 0
26 -7 38 -16z m338 -329 c26 -26 26 -55 0 -82 -25 -25 -71 -19 -92 12 -20 31
-12 68 18 83 35 16 47 14 74 -13z"/>
<path d="M759 919 c-84 -90 25 -225 131 -162 58 34 68 116 21 164 -24 24 -38
29 -76 29 -40 0 -52 -5 -76 -31z m124 -40 c17 -24 18 -30 6 -54 -27 -54 -93
-49 -113 8 -8 22 -6 31 14 52 30 32 66 30 93 -6z"/>
<path d="M475 633 c-30 -7 -63 -42 -75 -79 -21 -63 35 -134 105 -134 115 0
145 162 38 206 -34 15 -35 15 -68 7z m60 -55 c20 -9 25 -18 25 -48 0 -42 -18
-62 -55 -62 -69 0 -88 92 -25 115 23 8 27 8 55 -5z"/>
<path d="M135 310 c-11 -4 -30 -18 -41 -31 -64 -71 -14 -179 82 -179 48 0 104
53 104 99 0 47 -27 91 -65 107 -38 16 -51 16 -80 4z m81 -65 c29 -29 26 -58
-8 -88 -27 -23 -44 -22 -73 8 -30 29 -32 58 -5 85 27 27 56 25 86 -5z"/>
</g>
</svg>
